<?xml version="1.0" encoding="UTF-8"?>
<svg id="Layer_2" data-name="Layer 2" xmlns="http://www.w3.org/2000/svg" viewBox="0 0 819.17 819.18">
  <defs>
    <style>
      .cls-1 {
        stroke-width: 0px;
      }
    </style>
  </defs>
  <g id="Layer_1-2" data-name="Layer 1">
    <path class="cls-1" d="M786.97,250.15c-20.63-48.78-50.16-92.58-87.76-130.19-37.6-37.6-81.4-67.13-130.18-87.76C518.51,10.83,464.86,0,409.59,0s-108.93,10.83-159.45,32.2c-48.78,20.63-92.57,50.16-130.18,87.76-37.6,37.61-67.13,81.41-87.76,130.19C10.83,300.67,0,354.31,0,409.59s10.83,108.92,32.2,159.44c20.63,48.78,50.16,92.58,87.76,130.18,37.61,37.61,81.4,67.13,130.18,87.76,50.52,21.37,104.17,32.21,159.45,32.21s108.92-10.84,159.44-32.21c48.78-20.63,92.58-50.15,130.18-87.76,37.6-37.6,67.13-81.4,87.76-130.18,21.37-50.52,32.2-104.16,32.2-159.44s-10.83-108.92-32.2-159.44ZM409.59,78c15.52,0,30.79,1.07,45.75,3.15l-214.7,371.85H80.83c-1.87-14.21-2.83-28.7-2.83-43.41,0-182.84,148.75-331.59,331.59-331.59ZM408.07,318.23l77.81,134.77h-155.62l77.81-134.77ZM409.59,741.18c-140.16,0-260.28-87.41-308.72-210.57h429.82l81.56,141.26c-56.07,43.43-126.4,69.31-202.66,69.31ZM669.31,615.5l-216.43-374.88,80.13-138.79c121.89,49.05,208.16,168.52,208.16,307.76,0,77.74-26.89,149.31-71.86,205.91Z"/>
  </g>
</svg>