<?xml version="1.0" encoding="UTF-8"?>
<svg id="Layer_2" data-name="Layer 2" xmlns="http://www.w3.org/2000/svg" viewBox="0 0 2774.75 819.18">
  <defs>
    <style>
      .cls-1 {
        stroke-width: 0px;
      }
    </style>
  </defs>
  <g id="Layer_1-2" data-name="Layer 1">
    <g>
      <path class="cls-1" d="M786.97,250.15c-20.63-48.78-50.16-92.58-87.76-130.19-37.6-37.6-81.4-67.13-130.18-87.76C518.51,10.83,464.86,0,409.59,0s-108.93,10.83-159.45,32.2c-48.78,20.63-92.57,50.16-130.18,87.76-37.6,37.61-67.13,81.41-87.76,130.19C10.83,300.67,0,354.31,0,409.59s10.83,108.92,32.2,159.44c20.63,48.78,50.16,92.58,87.76,130.18,37.61,37.61,81.4,67.13,130.18,87.76,50.52,21.37,104.17,32.21,159.45,32.21s108.92-10.84,159.44-32.21c48.78-20.63,92.58-50.15,130.18-87.76,37.6-37.6,67.13-81.4,87.76-130.18,21.37-50.52,32.2-104.16,32.2-159.44s-10.83-108.92-32.2-159.44ZM409.59,78c15.52,0,30.79,1.07,45.75,3.15l-214.7,371.85H80.83c-1.87-14.21-2.83-28.7-2.83-43.41,0-182.84,148.75-331.59,331.59-331.59ZM408.07,318.23l77.81,134.77h-155.62l77.81-134.77ZM409.59,741.18c-140.16,0-260.28-87.41-308.72-210.57h429.82l81.56,141.26c-56.07,43.43-126.4,69.31-202.66,69.31ZM669.31,615.5l-216.43-374.88,80.13-138.79c121.89,49.05,208.16,168.52,208.16,307.76,0,77.74-26.89,149.31-71.86,205.91Z"/>
      <g>
        <path class="cls-1" d="M929.75,396.13h79.45c81.93,0,138.21,38.07,138.21,133.24s-56.28,135.72-134.07,135.72h-83.58v-268.96ZM1005.06,607.99c38.9,0,69.52-15.72,69.52-78.62s-30.62-76.14-69.52-76.14h-4.14v154.76h4.14Z"/>
        <path class="cls-1" d="M1185.04,396.13h173.79v59.59h-102.62v42.21h87.72v59.59h-87.72v48h106.76v59.59h-177.93v-268.96Z"/>
        <path class="cls-1" d="M1404.75,396.13h175.45v59.59h-104.27v51.31h89.38v59.58h-89.38v98.48h-71.17v-268.96Z"/>
        <path class="cls-1" d="M1616.19,396.13h173.79v59.59h-102.62v42.21h87.72v59.59h-87.72v48h106.76v59.59h-177.93v-268.96Z"/>
        <path class="cls-1" d="M1824.31,532.68c0-90.2,62.07-141.52,129.93-141.52,35.59,0,64.55,15.73,83.58,35.59l-37.24,43.03c-13.24-11.59-26.48-17.38-44.69-17.38-31.45,0-58.76,28.96-58.76,77.79s23.17,78.62,57.93,78.62c20.69,0,37.24-8.28,48.83-20.69l37.24,42.21c-24,27.31-54.62,39.72-88.55,39.72-68.69,0-128.27-45.52-128.27-137.38Z"/>
        <path class="cls-1" d="M2115.2,455.71h-71.17v-59.59h213.51v59.59h-71.17v209.38h-71.17v-209.38Z"/>
        <path class="cls-1" d="M2262.91,529.37c0-88.55,50.48-138.21,124.96-138.21s124.97,50.07,124.97,138.21-50.48,140.69-124.97,140.69-124.96-52.14-124.96-140.69ZM2440.01,529.37c0-48.83-19.86-76.97-52.14-76.97s-52.14,28.14-52.14,76.97,19.86,79.45,52.14,79.45,52.14-30.62,52.14-79.45Z"/>
        <path class="cls-1" d="M2550.48,396.13h101.79c57.93,0,107.59,19.86,107.59,86.9,0,38.48-17.38,63.72-43.45,77.79l58.35,104.28h-79.45l-46.35-90.2h-27.31v90.2h-71.17v-268.96ZM2647.3,518.61c28.14,0,43.03-12.41,43.03-35.59s-14.9-30.62-43.03-30.62h-25.65v66.21h25.65Z"/>
      </g>
    </g>
  </g>
</svg>