<?xml version="1.0" encoding="UTF-8"?>
<svg id="Layer_2" data-name="Layer 2" xmlns="http://www.w3.org/2000/svg" viewBox="0 0 6097.27 819.18">
  <defs>
    <style>
      .cls-1 {
        stroke-width: 0px;
      }
    </style>
  </defs>
  <g id="Layer_1-2" data-name="Layer 1">
    <g>
      <path class="cls-1" d="M786.97,250.15c-20.63-48.78-50.16-92.58-87.76-130.19-37.6-37.6-81.4-67.13-130.18-87.76C518.51,10.83,464.86,0,409.59,0s-108.93,10.83-159.45,32.2c-48.78,20.63-92.57,50.16-130.18,87.76-37.6,37.61-67.13,81.41-87.76,130.19C10.83,300.67,0,354.31,0,409.59s10.83,108.92,32.2,159.44c20.63,48.78,50.16,92.58,87.76,130.18,37.61,37.61,81.4,67.13,130.18,87.76,50.52,21.37,104.17,32.21,159.45,32.21s108.92-10.84,159.44-32.21c48.78-20.63,92.58-50.15,130.18-87.76,37.6-37.6,67.13-81.4,87.76-130.18,21.37-50.52,32.2-104.16,32.2-159.44s-10.83-108.92-32.2-159.44ZM78,409.59c0-182.84,148.75-331.59,331.59-331.59,15.52,0,30.79,1.07,45.75,3.15l-214.7,371.85H80.83c-1.87-14.21-2.83-28.7-2.83-43.41ZM408.07,318.23l77.81,134.77h-155.62l77.81-134.77ZM409.59,741.18c-140.16,0-260.28-87.41-308.72-210.57h429.82l81.56,141.26c-56.07,43.43-126.4,69.31-202.66,69.31ZM669.31,615.5l-216.43-374.88,80.13-138.79c121.89,49.05,208.16,168.52,208.16,307.76,0,77.74-26.89,149.31-71.86,205.91Z"/>
      <g>
        <path class="cls-1" d="M930.33,347.78h79.45c81.93,0,138.21,38.07,138.21,133.24s-56.28,135.72-134.07,135.72h-83.58v-268.96ZM1005.64,559.64c38.9,0,69.52-15.72,69.52-78.62s-30.62-76.14-69.52-76.14h-4.14v154.76h4.14Z"/>
        <path class="cls-1" d="M1185.63,347.78h173.79v59.59h-102.62v42.21h87.72v59.59h-87.72v48h106.76v59.59h-177.93v-268.96Z"/>
        <path class="cls-1" d="M1405.34,347.78h175.45v59.59h-104.27v51.31h89.38v59.58h-89.38v98.48h-71.17v-268.96Z"/>
        <path class="cls-1" d="M1616.78,347.78h173.79v59.59h-102.62v42.21h87.72v59.59h-87.72v48h106.76v59.59h-177.93v-268.96Z"/>
        <path class="cls-1" d="M1824.9,484.33c0-90.2,62.07-141.52,129.93-141.52,35.59,0,64.55,15.73,83.58,35.59l-37.24,43.03c-13.24-11.59-26.48-17.38-44.69-17.38-31.45,0-58.76,28.96-58.76,77.79s23.17,78.62,57.93,78.62c20.69,0,37.24-8.28,48.83-20.69l37.24,42.21c-24,27.31-54.62,39.72-88.55,39.72-68.69,0-128.27-45.52-128.27-137.38Z"/>
        <path class="cls-1" d="M2115.78,407.36h-71.17v-59.59h213.51v59.59h-71.17v209.38h-71.17v-209.38Z"/>
        <path class="cls-1" d="M2263.5,481.02c0-88.55,50.48-138.21,124.96-138.21s124.97,50.07,124.97,138.21-50.48,140.69-124.97,140.69-124.96-52.14-124.96-140.69ZM2440.6,481.02c0-48.83-19.86-76.97-52.14-76.97s-52.14,28.14-52.14,76.97,19.86,79.45,52.14,79.45,52.14-30.62,52.14-79.45Z"/>
        <path class="cls-1" d="M2551.06,347.78h101.79c57.93,0,107.59,19.86,107.59,86.9,0,38.48-17.38,63.72-43.45,77.79l58.35,104.28h-79.45l-46.35-90.2h-27.31v90.2h-71.17v-268.96ZM2647.89,470.26c28.14,0,43.03-12.41,43.03-35.59s-14.9-30.62-43.03-30.62h-25.65v66.21h25.65Z"/>
      </g>
      <g>
        <path class="cls-1" d="M3797.95,345.74c-35.3-31.8-89.68-28.96-121.48,6.34-31.8,35.3-28.96,89.68,6.34,121.48,35.28,31.78,89.64,28.96,121.44-6.3,31.79-35.31,28.97-89.69-6.3-121.52Z"/>
        <path class="cls-1" d="M3493.97,82.38c-56.72,42.76-101.39,99.49-129.65,164.65,34.04,8.39,135.94,41.55,182.69,167.78,14.06-4.58,44.37-22.25,65.41-90.45,28.2-91.32,81.7-179.15,151.08-208.64-69.19-68.45-160.34-84.57-269.53-33.34Z"/>
        <path class="cls-1" d="M4055.76,148.41l.02-.02c-139.56-168.56-386.98-197.63-561.81-66,151.58-71.12,268.41-12.45,339.95,135.84,113.95,20.44,191.35-36.26,221.84-69.82Z"/>
        <path class="cls-1" d="M3580.18,786.53c65.38,27.74,136.84,38.07,207.4,29.96-9.75-33.67-31.99-138.51,53.95-242.12-11-9.89-41.45-27.31-111.03-11.42-93.18,21.23-195.98,18.81-256.21-26.53-24.68,94.15,6.94,181.16,105.9,250.11Z"/>
        <path class="cls-1" d="M3356.46,266.95h-.03c-76.19,205.15,22.34,433.96,223.75,519.58-137.38-95.72-144.98-226.24-52.34-362.35-39.28-108.92-127.08-147.59-171.38-157.23Z"/>
        <path class="cls-1" d="M4146.84,359.8c-8.67-70.5-35.46-137.55-77.76-194.61-24.28,25.28-103.95,96.96-236.64,74.34-3.06,14.47-2.92,49.56,45.63,101.88,64.98,70.08,114.28,160.34,105.13,235.17,93.87-25.7,153.4-96.59,163.64-216.77Z"/>
        <path class="cls-1" d="M3808.77,813.35v.03c215.77-36.61,364.65-236.35,338.07-453.58-14.2,166.84-123.42,238.69-287.61,226.5-74.68,88.48-64.27,183.86-50.46,227.05Z"/>
      </g>
      <g>
        <path class="cls-1" d="M2935.82,618.48h-13.76v-26.69l13.76-1.04v-1.46c0-22.31,10.43-42.12,41.29-42.12,9.59,0,17.52,2.08,22.11,3.75l-6.67,25.44c-3.34-.83-6.67-1.25-10.01-1.25-6.67,0-10.84,3.34-10.84,12.93v2.5h17.52v27.94h-17.52v76.33h-35.87v-76.33Z"/>
        <path class="cls-1" d="M2991.92,642.67c0-34.62,25.02-54.64,51.72-54.64s51.72,20.02,51.72,54.64-25.03,54.64-51.72,54.64-51.72-20.02-51.72-54.64ZM3058.65,642.67c0-15.85-4.17-25.86-15.01-25.86s-15.01,10.01-15.01,25.86,4.17,25.86,15.01,25.86,15.01-10.01,15.01-25.86Z"/>
        <path class="cls-1" d="M3108.91,590.53h29.2l2.5,17.93h.83c7.72-14.18,19.39-20.44,29.61-20.44,6.46,0,10.01.83,12.93,2.08l-6.67,30.45c-3.75-.83-6.26-1.25-10.84-1.25-7.51,0-16.68,4.59-21.69,17.52v57.97h-35.87v-104.27Z"/>
      </g>
      <g>
        <path class="cls-1" d="M4352.78,617.15h-56.75v-264.81h91.17c15.17-.18,30.3,1.6,45.02,5.3,12.36,3.05,23.99,8.52,34.23,16.08,9.48,7.21,16.96,16.71,21.75,27.62,5.3,12.49,7.88,25.97,7.57,39.53.25,13.64-2.4,27.18-7.76,39.73-5.04,11.44-12.76,21.49-22.51,29.32-10.66,8.36-22.88,14.54-35.94,18.16-15.51,4.35-31.56,6.45-47.67,6.24h-29.13v82.85ZM4351.65,484.37h31.02c17.15,0,30.51-3.34,40.1-10.03,9.58-6.68,14.37-17.08,14.37-31.21,0-14.88-4.67-25.41-14-31.59-9.33-6.18-22.7-9.27-40.1-9.27h-31.4v82.09Z"/>
        <path class="cls-1" d="M4650.91,621.69c-17.86.22-35.61-2.79-52.4-8.89-15.33-5.65-29.22-14.63-40.67-26.29-11.75-12.25-20.72-26.9-26.29-42.94-6.49-18.92-9.62-38.82-9.26-58.82-.37-20.03,2.9-39.96,9.65-58.83,5.8-16.01,14.88-30.64,26.67-42.94,11.35-11.6,25.1-20.58,40.29-26.29,16.14-6.04,33.26-9.05,50.5-8.89,18.65-.31,37.2,2.9,54.67,9.46,15.35,5.86,29.19,15.1,40.48,27.04,11.37,12.41,19.95,27.12,25.16,43.13,6.03,18.5,8.96,37.86,8.7,57.32.44,20.78-2.83,41.46-9.64,61.1-5.67,16.07-14.84,30.67-26.86,42.75-11.47,11.22-25.3,19.75-40.48,24.97-16.26,5.54-33.33,8.29-50.51,8.13ZM4652.81,571.75c9.1.1,18.12-1.71,26.48-5.3,8.14-3.59,15.28-9.11,20.81-16.08,6.22-8.04,10.79-17.23,13.43-27.04,3.37-12.58,4.96-25.57,4.73-38.59,0-30.01-6.3-52.02-18.91-66.02-12.72-14.04-31.01-21.73-49.94-20.99-9.04-.06-17.99,1.74-26.29,5.3-8.29,3.6-15.61,9.11-21.37,16.08-6.5,8.04-11.33,17.3-14.19,27.24-3.61,12.47-5.34,25.42-5.11,38.4-.27,13.07,1.58,26.1,5.48,38.59,3.14,9.92,8.22,19.11,14.94,27.04,6.08,7.03,13.73,12.54,22.32,16.08,8.77,3.57,18.15,5.37,27.62,5.3h0Z"/>
        <path class="cls-1" d="M5015.25,606.66c-3.54,1.76-7.38,3.51-11.54,5.26-4.8,1.97-9.73,3.6-14.76,4.89-6.46,1.65-13.04,2.84-19.67,3.57-8.48.93-17.01,1.37-25.54,1.31-18.71.23-37.32-2.71-55.04-8.7-15.8-5.36-30.25-14.08-42.37-25.54-12.07-11.74-21.37-26.02-27.24-41.8-6.74-18.41-10.01-37.9-9.65-57.5-.36-20.52,2.91-40.95,9.65-60.34,11.55-33.58,38.15-59.83,71.88-70.93,18.83-6.3,38.6-9.37,58.45-9.08,13.02-.13,26.02,1.14,38.77,3.78,9.55,1.91,18.87,4.83,27.8,8.7l-12.49,47.66c-8-2.75-16.23-4.78-24.59-6.05-7.13-1.16-14.34-1.79-21.56-1.89-12.09-.15-24.14,1.52-35.74,4.93-10.23,3.01-19.67,8.26-27.62,15.36-7.96,7.34-14.11,16.42-17.97,26.54-4.54,12.18-6.72,25.11-6.42,38.1,0,28.06,7.88,49.17,23.65,63.32,15.75,14.15,37,21.23,63.74,21.23,7.37-.14,14.72-.96,21.94-2.46,8.59-1.64,16.97-4.24,24.97-7.75l11.34,47.39Z"/>
        <path class="cls-1" d="M5219.72,559.27h-101.76l-18.92,57.88h-55.99l90.42-264.81h73.76l89.28,264.81h-57.88l-18.92-57.88ZM5133.47,509.34h70.74l-35.18-111.22-35.56,111.22Z"/>
        <path class="cls-1" d="M5424.36,617.15h-56.75v-212.61h-75.29v-52.21h206.94v52.21h-74.9v212.61Z"/>
        <path class="cls-1" d="M5641.53,621.69c-17.86.22-35.61-2.79-52.4-8.89-15.33-5.65-29.22-14.63-40.66-26.29-11.76-12.25-20.73-26.9-26.29-42.94-6.49-18.92-9.63-38.82-9.28-58.82-.36-20.03,2.91-39.96,9.65-58.83,5.8-16.01,14.89-30.64,26.67-42.94,11.35-11.6,25.1-20.58,40.29-26.29,16.15-6.04,33.27-9.05,50.51-8.89,18.65-.31,37.2,2.9,54.67,9.46,15.35,5.86,29.19,15.1,40.48,27.04,11.37,12.42,19.94,27.12,25.16,43.13,6.03,18.5,8.97,37.86,8.7,57.32.43,20.78-2.83,41.46-9.64,61.1-5.67,16.07-14.84,30.67-26.86,42.75-11.48,11.22-25.3,19.75-40.48,24.97-16.26,5.54-33.33,8.29-50.51,8.13ZM5643.43,571.75c9.1.1,18.12-1.71,26.48-5.3,8.14-3.58,15.28-9.1,20.8-16.08,6.23-8.03,10.79-17.23,13.44-27.04,3.37-12.58,4.97-25.57,4.73-38.59,0-30.01-6.31-52.02-18.92-66.02-12.72-14.04-31-21.73-49.94-20.99-9.04-.06-17.99,1.74-26.3,5.3-8.29,3.6-15.61,9.11-21.37,16.08-6.51,8.04-11.33,17.3-14.19,27.24-3.61,12.47-5.33,25.42-5.1,38.4-.27,13.07,1.58,26.1,5.48,38.59,3.14,9.92,8.22,19.11,14.95,27.04,6.08,7.03,13.72,12.54,22.32,16.08,8.77,3.57,18.15,5.37,27.62,5.3h0Z"/>
        <path class="cls-1" d="M6097.27,617.15h-57.12l-14.38-175.91-54.47,175.91h-54.1l-53.72-175.15-14.37,175.15h-57.12l26.47-264.81h67.72l59.77,199.75,59.02-199.75h65.44l26.86,264.81Z"/>
      </g>
    </g>
  </g>
</svg>