<?xml version="1.0" encoding="UTF-8"?>
<svg id="Layer_2" data-name="Layer 2" xmlns="http://www.w3.org/2000/svg" viewBox="0 0 395.88 669.23">
  <defs>
    <style>
      .cls-1, .cls-2, .cls-3, .cls-4, .cls-5, .cls-6 {
        stroke-width: 0px;
      }

      .cls-2 {
        opacity: .21;
      }

      .cls-3 {
        opacity: .31;
      }

      .cls-3, .cls-4, .cls-7, .cls-6 {
        fill: #fff;
      }

      .cls-8, .cls-9, .cls-10, .cls-7, .cls-11 {
        stroke: #000;
        stroke-miterlimit: 10;
      }

      .cls-8, .cls-7 {
        stroke-width: 2px;
      }

      .cls-9, .cls-10, .cls-11 {
        stroke-width: 2.3px;
      }

      .cls-10 {
        fill: none;
      }

      .cls-5 {
        opacity: .41;
      }

      .cls-6 {
        opacity: .12;
      }

      .cls-11 {
        fill: #c8c6db;
      }
    </style>
  </defs>
  <g id="Layer_1-2" data-name="Layer 1">
    <g>
      <line class="cls-10" x1="225.21" y1="18.08" x2="225.21" y2="116.08"/>
      <g>
        <rect class="cls-11" x="78.63" y="343.16" width="41" height="68" transform="translate(-97.47 713.95) rotate(-135)"/>
        <path class="cls-11" d="M29.51,403.88h12.35c7.91,0,14.33,6.42,14.33,14.33v59.13H15.18v-59.13c0-7.91,6.42-14.33,14.33-14.33Z" transform="translate(-250.65 777.4) rotate(-135)"/>
        <path class="cls-9" d="M89.58,415.7c-9.66-9.66-19.33-19.33-28.99-28.99-2.2,2.2.75,5.3-3.55,9.6s-7.6,1.56-9.88,3.84l28.99,28.99c2.26-2.26-.68-5.37,3.75-9.79s7.47-1.43,9.69-3.64Z"/>
      </g>
      <g>
        <rect class="cls-11" x="276.25" y="342.16" width="41" height="68" transform="translate(-179.07 320.01) rotate(-45)"/>
        <path class="cls-11" d="M339.7,402.88h41v59.13c0,7.91-6.42,14.33-14.33,14.33h-12.35c-7.91,0-14.33-6.42-14.33-14.33v-59.13h0Z" transform="translate(-205.35 383.46) rotate(-45)"/>
        <path class="cls-9" d="M306.3,414.7c9.66-9.66,19.33-19.33,28.99-28.99,2.2,2.2-.75,5.3,3.55,9.6s7.6,1.56,9.88,3.84l-28.99,28.99c-2.26-2.26.68-5.37-3.75-9.79s-7.47-1.43-9.69-3.64Z"/>
      </g>
      <rect class="cls-11" x="183.21" y="300.08" width="30" height="30"/>
      <path class="cls-11" d="M267.49,467.08h-138.55l-24.49-114.25c-2.18-10.17,5.57-19.75,15.97-19.75h155.59c10.4,0,18.15,9.59,15.97,19.75l-24.49,114.25Z"/>
      <path class="cls-1" d="M199.29,300.08h5.92v52h-5.92c-4.46,0-8.08-3.62-8.08-8.08v-35.85c0-4.46,3.62-8.08,8.08-8.08Z" transform="translate(524.29 127.87) rotate(90)"/>
      <ellipse class="cls-11" cx="198.21" cy="208.49" rx="127" ry="100.41"/>
      <ellipse class="cls-7" cx="144.71" cy="207.08" rx="28" ry="32.69"/>
      <ellipse class="cls-7" cx="253.71" cy="207.08" rx="28" ry="32.69"/>
      <circle class="cls-1" cx="253.71" cy="207.58" r="12.5"/>
      <circle class="cls-1" cx="144.71" cy="207.58" r="12.5"/>
      <path class="cls-4" d="M137.27,208.08c-1.02.05-1.82-.85-1.66-1.86.21-1.33.76-3.02,2.08-4.57,1.78-2.09,4.04-2.86,5.66-3.13,1-.17,1.9.63,1.86,1.65v.2c-.04.74-.57,1.38-1.31,1.51-1.03.18-2.5.67-3.62,1.98-.81.95-1.16,2-1.3,2.84-.13.76-.74,1.35-1.51,1.38h-.2Z"/>
      <path class="cls-4" d="M246.27,208.08c-1.02.05-1.82-.85-1.66-1.86.21-1.33.76-3.02,2.08-4.57,1.78-2.09,4.04-2.86,5.66-3.13,1-.17,1.9.63,1.86,1.65v.2c-.04.74-.57,1.38-1.31,1.51-1.03.18-2.5.67-3.62,1.98-.81.95-1.16,2-1.3,2.84-.13.76-.74,1.35-1.51,1.38h-.2Z"/>
      <path class="cls-3" d="M261.53,207.49c1.02-.05,1.82.85,1.66,1.86-.21,1.33-.76,3.02-2.08,4.57-1.78,2.09-4.04,2.86-5.66,3.13-1,.17-1.9-.63-1.86-1.65v-.2c.04-.74.57-1.38,1.31-1.51,1.03-.18,2.5-.67,3.62-1.98.81-.95,1.16-2,1.3-2.84.13-.76.74-1.35,1.51-1.38h.2Z"/>
      <path class="cls-3" d="M152.53,207.49c1.02-.05,1.82.85,1.66,1.86-.21,1.33-.76,3.02-2.08,4.57-1.78,2.09-4.04,2.86-5.66,3.13-1,.17-1.9-.63-1.86-1.65v-.2c.04-.74.57-1.38,1.31-1.51,1.03-.18,2.5-.67,3.62-1.98.81-.95,1.16-2,1.3-2.84.13-.76.74-1.35,1.51-1.38h.2Z"/>
      <path class="cls-1" d="M182.85,255.26c12.19,4.6,21.88,4.33,31.66-4.97,0,0,3.01,1.98,3.01,1.98-4.04,10.97-17.14,15.57-27.64,11.15-3.32-1.34-6.29-3.21-8.72-5.82,0,0,1.69-2.34,1.69-2.34h0Z"/>
      <rect class="cls-11" x="131.21" y="496.08" width="41" height="68"/>
      <path class="cls-11" d="M131.21,584.08h41v69.67c0,7.91-6.42,14.33-14.33,14.33h-12.35c-7.91,0-14.33-6.42-14.33-14.33v-69.67h0Z"/>
      <rect class="cls-11" x="226.21" y="496.08" width="41" height="68"/>
      <path class="cls-11" d="M226.21,583.08h41v69.67c0,7.91-6.42,14.33-14.33,14.33h-12.35c-7.91,0-14.33-6.42-14.33-14.33v-69.67h0Z"/>
      <polygon class="cls-11" points="225.62 525.08 171.8 525.08 152.35 496.08 245.07 496.08 225.62 525.08"/>
      <path class="cls-9" d="M131.21,564.08h41c0,3.11-4.27,3.22-4.27,9.3s4.27,6.48,4.27,9.7h-41c0-3.2,4.27-3.32,4.27-9.57s-4.27-6.3-4.27-9.43Z"/>
      <path class="cls-9" d="M226.21,564.08h41c0,3.11-4.27,3.22-4.27,9.3s4.27,6.48,4.27,9.7h-41c0-3.2,4.27-3.32,4.27-9.57s-4.27-6.3-4.27-9.43Z"/>
      <rect class="cls-8" x="121.21" y="465.08" width="153" height="31" rx="6.85" ry="6.85"/>
      <ellipse class="cls-11" cx="225.21" cy="10.06" rx="9" ry="8.91"/>
      <path class="cls-3" d="M156.92,125.93c0,1.47-.97,2.79-2.42,3.19-7.07,1.93-13.91,4.35-20.42,7.71-6.52,3.3-12.5,7.44-18.14,12.1-1.28,1.06-3.15.99-4.36-.14l-.79-.75s-.1-.08-.14-.13c-.36-.36-.58-.86-.58-1.41,0-.41.12-.79.32-1.1.01-.01.01-.02.02-.02.09-.12.19-.23.3-.35,8.3-9.91,19.89-17.07,32.33-20.52,3.37-.93,6.82-1.58,10.29-1.89,1.76-.15,3.32,1.12,3.56,2.87.02.15.03.3.03.44Z"/>
      <path class="cls-6" d="M77.51,416.26c-.29.41-.87.5-1.27.2-3.23-2.38-6.31-5.02-9.16-7.85-2.76-2.74-5.36-5.71-7.71-8.83-.3-.4-.22-.97.19-1.27h0c.4-.29.95-.21,1.25.18,2.3,3.05,4.84,5.95,7.54,8.64,2.79,2.77,5.8,5.35,8.97,7.68.4.29.49.84.2,1.24h0Z"/>
      <path class="cls-6" d="M319.01,416.26c.29.41.87.5,1.27.2,3.23-2.38,6.31-5.02,9.16-7.85,2.76-2.74,5.36-5.71,7.71-8.83.3-.4.22-.97-.19-1.27h0c-.4-.29-.95-.21-1.25.18-2.3,3.05-4.84,5.95-7.54,8.64-2.79,2.77-5.8,5.35-8.97,7.68-.4.29-.49.84-.2,1.24h0Z"/>
      <path class="cls-6" d="M234.09,573.74c-.07.5.29.96.78,1.02,3.98.48,8.03.67,12.05.57,3.89-.1,7.81-.49,11.66-1.14.49-.08.82-.56.73-1.05h0c-.09-.49-.55-.8-1.03-.72-3.77.64-7.6,1.02-11.41,1.12-3.93.1-7.89-.08-11.79-.55-.49-.06-.93.28-1,.77h0Z"/>
      <path class="cls-6" d="M164.33,573.74c.07.5-.29.96-.78,1.02-3.98.48-8.03.67-12.05.57-3.89-.1-7.81-.49-11.66-1.14-.49-.08-.82-.56-.73-1.05h0c.09-.49.55-.8,1.03-.72,3.77.64,7.6,1.02,11.41,1.12,3.93.1,7.89-.08,11.79-.55.49-.06.93.28,1,.77h0Z"/>
      <path class="cls-5" d="M131.67,496.72l-.46,2.29c45.33.57,90.67,1.13,136,1.7-.15-1.54-.3-3.09-.45-4.63-45.03.21-90.06.43-135.08.64Z"/>
      <path class="cls-2" d="M283.98,392.38c.49.51.97,1.01,1.46,1.52,5.14-21.22,8.87-36.42,9.76-39.23.16-.49.76-2.28.68-4.67-.04-1.22-.25-2.21-.42-2.89-.89-1.02-1.77-2.04-2.66-3.06-2.94,16.11-5.88,32.22-8.81,48.32Z"/>
      <path class="cls-2" d="M112.31,392.38c-.49.51-.97,1.01-1.46,1.52-5.14-21.22-8.87-36.42-9.76-39.23-.16-.49-.76-2.28-.68-4.67.04-1.22.25-2.21.42-2.89.89-1.02,1.77-2.04,2.66-3.06,2.94,16.11,5.88,32.22,8.81,48.32Z"/>
      <path class="cls-5" d="M183.21,310.93c4.37.79,9.48,1.36,15.2,1.35,5.55-.01,10.53-.57,14.8-1.35v-2.51c-4.36.65-9.28,1.09-14.67,1.11-5.65.02-10.79-.44-15.33-1.11v2.51Z"/>
      <path class="cls-2" d="M181.4,258.02c4.37,6.42,12.09,9.76,19.75,8.55,7.64-1.21,13.93-6.73,16.13-14.15-1.2,1.69-6,8-14.89,10.08-11.14,2.6-19.74-3.54-21-4.47Z"/>
    </g>
    <g id="Layer_1-2" data-name="Layer 1-2">
      <g>
        <path class="cls-1" d="M150.63,376.96v-12.34h-24.69v32.91h32.91v-20.57h-8.23ZM134.17,372.85h8.23v4.11h-8.23v-4.11ZM150.63,389.31h-16.46v-4.11h16.46v4.11Z"/>
        <polygon class="cls-1" points="195.88 364.62 195.88 397.54 187.65 397.54 187.65 372.85 183.54 372.85 183.54 397.54 162.97 397.54 162.97 372.85 154.47 372.85 154.47 364.62 171.2 364.62 171.2 389.31 175.31 389.31 175.31 364.62 195.88 364.62"/>
        <rect class="cls-1" x="261.71" y="389.31" width="8.23" height="8.23"/>
        <polygon class="cls-1" points="232.91 364.62 232.91 397.54 224.68 397.54 224.68 372.85 220.57 372.85 220.57 397.54 200 397.54 200 364.62 208.23 364.62 208.23 389.31 212.34 389.31 212.34 364.62 232.91 364.62"/>
        <polygon class="cls-1" points="269.94 364.62 269.94 385.19 261.71 385.19 261.71 372.85 257.6 372.85 257.6 397.54 237.03 397.54 237.03 364.62 245.25 364.62 245.25 389.31 249.37 389.31 249.37 364.62 269.94 364.62"/>
      </g>
    </g>
  </g>
</svg>