<?xml version="1.0" encoding="UTF-8"?>
<svg id="Layer_2" data-name="Layer 2" xmlns="http://www.w3.org/2000/svg" xmlns:xlink="http://www.w3.org/1999/xlink" viewBox="0 0 281.28 278.74">
  <defs>
    <style>
      .cls-1 {
        fill: url(#linear-gradient);
      }

      .cls-1, .cls-2, .cls-3, .cls-4, .cls-5, .cls-6, .cls-7, .cls-8 {
        stroke-width: 0px;
      }

      .cls-2 {
        fill: url(#linear-gradient-6);
      }

      .cls-3 {
        fill: url(#linear-gradient-5);
      }

      .cls-4 {
        fill: url(#linear-gradient-2);
      }

      .cls-5 {
        fill: url(#linear-gradient-3);
      }

      .cls-6 {
        fill: url(#radial-gradient);
      }

      .cls-7 {
        fill: url(#linear-gradient-4);
      }

      .cls-8 {
        fill: #3a3a39;
      }
    </style>
    <radialGradient id="radial-gradient" cx="134.01" cy="298.85" fx="134.01" fy="298.85" r="29.14" gradientTransform="translate(0 385.9) scale(1 -1)" gradientUnits="userSpaceOnUse">
      <stop offset="0" stop-color="#4996d1"/>
      <stop offset="1" stop-color="#272762"/>
    </radialGradient>
    <linearGradient id="linear-gradient" x1="70.74" y1="301.24" x2="119.75" y2="376.72" gradientTransform="translate(0 385.9) scale(1 -1)" gradientUnits="userSpaceOnUse">
      <stop offset="0" stop-color="#4996d1"/>
      <stop offset="1" stop-color="#272762"/>
    </linearGradient>
    <linearGradient id="linear-gradient-2" x1="90.3" y1="388.22" x2="212.05" y2="339.03" xlink:href="#linear-gradient"/>
    <linearGradient id="linear-gradient-3" x1="-3227.22" y1="3856.25" x2="-3178.21" y2="3931.72" gradientTransform="translate(1889.48 -4556.93) rotate(-120) scale(1 -1)" xlink:href="#linear-gradient"/>
    <linearGradient id="linear-gradient-4" x1="-3207.66" y1="3943.22" x2="-3085.9" y2="3894.03" gradientTransform="translate(1889.48 -4556.93) rotate(-120) scale(1 -1)" xlink:href="#linear-gradient"/>
    <linearGradient id="linear-gradient-5" x1="1500.72" y1="4935.08" x2="1549.73" y2="5010.56" gradientTransform="translate(-3335.86 -3722.25) rotate(120) scale(1 -1)" xlink:href="#linear-gradient"/>
    <linearGradient id="linear-gradient-6" x1="1520.27" y1="5022.06" x2="1642.03" y2="4972.87" gradientTransform="translate(-3335.86 -3722.25) rotate(120) scale(1 -1)" xlink:href="#linear-gradient"/>
  </defs>
  <g id="Layer_1-2" data-name="Layer 1">
    <g>
      <g>
        <path class="cls-6" d="M154.51,83.21c-8.49-7.65-21.58-6.97-29.24,1.53-7.65,8.49-6.97,21.58,1.53,29.24,8.49,7.65,21.57,6.97,29.23-1.52,7.65-8.5,6.97-21.59-1.52-29.25Z"/>
        <path class="cls-1" d="M81.35,19.83c-13.65,10.29-24.4,23.94-31.2,39.63,8.19,2.02,32.72,10,43.97,40.38,3.38-1.1,10.68-5.35,15.74-21.77,6.79-21.98,19.66-43.12,36.36-50.21-16.65-16.47-38.59-20.35-64.87-8.02Z"/>
        <path class="cls-4" d="M216.56,35.72h0C182.97-4.86,123.43-11.85,81.35,19.83c36.48-17.12,64.6-3,81.82,32.69,27.43,4.92,46.05-8.73,53.39-16.8Z"/>
        <path class="cls-5" d="M102.1,189.3c15.74,6.68,32.93,9.16,49.92,7.21-2.35-8.1-7.7-33.34,12.98-58.27-2.65-2.38-9.98-6.57-26.72-2.75-22.42,5.11-47.17,4.53-61.66-6.39-5.94,22.66,1.67,43.6,25.49,60.19Z"/>
        <path class="cls-7" d="M48.25,64.25h0c-18.34,49.37,5.38,104.44,53.85,125.05-33.06-23.04-34.89-54.45-12.6-87.21-9.45-26.21-30.58-35.52-41.25-37.84Z"/>
        <path class="cls-3" d="M238.48,86.59c-2.09-16.97-8.53-33.1-18.71-46.84-5.84,6.08-25.02,23.34-56.95,17.89-.74,3.48-.7,11.93,10.98,24.52,15.64,16.87,27.5,38.59,25.3,56.6,22.59-6.18,36.92-23.25,39.38-52.17Z"/>
        <path class="cls-2" d="M157.11,195.75h0c51.93-8.8,87.76-56.88,81.36-109.16-3.42,40.15-29.7,57.45-69.22,54.51-17.97,21.29-15.47,44.25-12.15,54.64Z"/>
      </g>
      <g>
        <path class="cls-8" d="M8.46,278.06H0v-39.49h13.6c2.26-.03,4.52.24,6.71.79,1.84.46,3.58,1.27,5.11,2.4,1.41,1.08,2.53,2.49,3.24,4.12.79,1.86,1.17,3.87,1.13,5.89.04,2.03-.36,4.05-1.16,5.92-.75,1.71-1.9,3.2-3.36,4.37-1.59,1.25-3.41,2.17-5.36,2.71-2.31.65-4.71.96-7.11.93h-4.34v12.35ZM8.29,258.26h4.63c2.56,0,4.55-.5,5.98-1.5,1.43-1,2.14-2.55,2.14-4.65,0-2.22-.7-3.79-2.09-4.71-1.39-.92-3.38-1.38-5.98-1.38h-4.68v12.24Z"/>
        <path class="cls-8" d="M55.4,278.74c-2.66.03-5.31-.42-7.81-1.33-2.29-.84-4.36-2.18-6.06-3.92-1.75-1.83-3.09-4.01-3.92-6.4-.97-2.82-1.43-5.79-1.38-8.77-.05-2.99.43-5.96,1.44-8.77.86-2.39,2.22-4.57,3.98-6.4,1.69-1.73,3.74-3.07,6.01-3.92,2.41-.9,4.96-1.35,7.53-1.33,2.78-.05,5.55.43,8.15,1.41,2.29.87,4.35,2.25,6.04,4.03,1.7,1.85,2.98,4.04,3.75,6.43.9,2.76,1.34,5.65,1.3,8.55.07,3.1-.42,6.18-1.44,9.11-.85,2.4-2.21,4.57-4.01,6.37-1.71,1.67-3.77,2.95-6.04,3.72-2.42.83-4.97,1.24-7.53,1.21ZM55.68,271.29c1.36.01,2.7-.25,3.95-.79,1.21-.53,2.28-1.36,3.1-2.4.93-1.2,1.61-2.57,2-4.03.5-1.88.74-3.81.71-5.75,0-4.48-.94-7.76-2.82-9.84-1.9-2.09-4.62-3.24-7.45-3.13-1.35,0-2.68.26-3.92.79-1.24.54-2.33,1.36-3.19,2.4-.97,1.2-1.69,2.58-2.12,4.06-.54,1.86-.8,3.79-.76,5.73-.04,1.95.24,3.89.82,5.75.47,1.48,1.23,2.85,2.23,4.03.91,1.05,2.05,1.87,3.33,2.4,1.31.53,2.71.8,4.12.79h0Z"/>
        <path class="cls-8" d="M112.32,276.5c-.53.26-1.1.52-1.72.78-.72.29-1.45.54-2.2.73-.96.25-1.94.42-2.93.53-1.26.14-2.54.2-3.81.2-2.79.03-5.57-.4-8.21-1.3-2.36-.8-4.51-2.1-6.32-3.81-1.8-1.75-3.19-3.88-4.06-6.23-1-2.75-1.49-5.65-1.44-8.58-.05-3.06.43-6.11,1.44-9,1.72-5.01,5.69-8.92,10.72-10.58,2.81-.94,5.76-1.4,8.72-1.35,1.94-.02,3.88.17,5.78.56,1.42.28,2.81.72,4.15,1.3l-1.86,7.11c-1.19-.41-2.42-.71-3.67-.9-1.06-.17-2.14-.27-3.22-.28-1.8-.02-3.6.23-5.33.73-1.53.45-2.93,1.23-4.12,2.29-1.19,1.09-2.1,2.45-2.68,3.96-.68,1.82-1,3.74-.96,5.68,0,4.18,1.18,7.33,3.53,9.44,2.35,2.11,5.52,3.17,9.5,3.17,1.1-.02,2.2-.14,3.27-.37,1.28-.24,2.53-.63,3.72-1.16l1.69,7.07Z"/>
        <path class="cls-8" d="M144.47,269.43h-15.18l-2.82,8.63h-8.35l13.48-39.49h11l13.31,39.49h-8.63l-2.82-8.63ZM131.61,261.98h10.55l-5.25-16.59-5.3,16.59Z"/>
        <path class="cls-8" d="M175.17,278.06h-8.46v-31.71h-11.23v-7.79h30.86v7.79h-11.17v31.71Z"/>
        <path class="cls-8" d="M209.46,278.74c-2.66.03-5.31-.42-7.81-1.33-2.29-.84-4.36-2.18-6.06-3.92-1.75-1.83-3.09-4.01-3.92-6.4-.97-2.82-1.44-5.79-1.38-8.77-.05-2.99.43-5.96,1.44-8.77.87-2.39,2.22-4.57,3.98-6.4,1.69-1.73,3.74-3.07,6.01-3.92,2.41-.9,4.96-1.35,7.53-1.33,2.78-.05,5.55.43,8.15,1.41,2.29.87,4.35,2.25,6.04,4.03,1.7,1.85,2.97,4.04,3.75,6.43.9,2.76,1.34,5.65,1.3,8.55.06,3.1-.42,6.18-1.44,9.11-.85,2.4-2.21,4.57-4.01,6.37-1.71,1.67-3.77,2.95-6.04,3.72-2.42.83-4.97,1.24-7.53,1.21ZM209.75,271.29c1.36.01,2.7-.25,3.95-.79,1.21-.53,2.28-1.36,3.1-2.4.93-1.2,1.61-2.57,2-4.03.5-1.88.74-3.81.71-5.75,0-4.48-.94-7.76-2.82-9.84-1.9-2.09-4.62-3.24-7.45-3.13-1.35,0-2.68.26-3.92.79-1.24.54-2.33,1.36-3.19,2.4-.97,1.2-1.69,2.58-2.12,4.06-.54,1.86-.8,3.79-.76,5.73-.04,1.95.24,3.89.82,5.75.47,1.48,1.23,2.85,2.23,4.03.91,1.05,2.05,1.87,3.33,2.4,1.31.53,2.71.8,4.12.79h0Z"/>
        <path class="cls-8" d="M281.28,278.06h-8.52l-2.14-26.23-8.12,26.23h-8.07l-8.01-26.12-2.14,26.12h-8.52l3.95-39.49h10.1l8.91,29.79,8.8-29.79h9.76l4.01,39.49Z"/>
      </g>
    </g>
  </g>
</svg>